<svg xmlns="http://www.w3.org/2000/svg" width="210.355" height="36.504" viewBox="0 0 210.355 36.504"><g transform="translate(-101.822 -147.988)"><path d="M.01-13.672c4.727,0,8.555-4.18,8.555-9.3A8.779,8.779,0,0,0,.01-32.012,8.827,8.827,0,0,0-8.545-22.93C-8.525-17.832-4.717-13.672.01-13.672Zm0-3.418c-2.7,0-4.98-2.559-4.98-5.84-.02-3.2,2.266-5.664,4.98-5.664,2.734,0,4.98,2.422,4.98,5.625C4.99-19.687,2.725-17.09.01-17.09ZM-12.178,4.492H12.178c3.379,0,5-1.074,5-3.379,0-5.371-6.7-12.52-17.168-12.52S-17.178-4.258-17.178,1.113C-17.178,3.418-15.557,4.492-12.178,4.492Zm-.605-3.418c-.469,0-.645-.156-.645-.508C-13.428-2.422-8.6-7.988.01-7.988,8.6-7.988,13.428-2.422,13.428.566c0,.352-.176.508-.645.508Z" transform="translate(119 180)"/><path d="M.01-13.672c4.727,0,8.555-4.18,8.555-9.3A8.779,8.779,0,0,0,.01-32.012,8.827,8.827,0,0,0-8.545-22.93C-8.525-17.832-4.717-13.672.01-13.672Zm0-3.418c-2.7,0-4.98-2.559-4.98-5.84-.02-3.2,2.266-5.664,4.98-5.664,2.734,0,4.98,2.422,4.98,5.625C4.99-19.687,2.725-17.09.01-17.09ZM-12.178,4.492H12.178c3.379,0,5-1.074,5-3.379,0-5.371-6.7-12.52-17.168-12.52S-17.178-4.258-17.178,1.113C-17.178,3.418-15.557,4.492-12.178,4.492Zm-.605-3.418c-.469,0-.645-.156-.645-.508C-13.428-2.422-8.6-7.988.01-7.988,8.6-7.988,13.428-2.422,13.428.566c0,.352-.176.508-.645.508Z" transform="translate(163 180)"/><path d="M.01-13.672c4.727,0,8.555-4.18,8.555-9.3A8.779,8.779,0,0,0,.01-32.012,8.827,8.827,0,0,0-8.545-22.93C-8.525-17.832-4.717-13.672.01-13.672Zm0-3.418c-2.7,0-4.98-2.559-4.98-5.84-.02-3.2,2.266-5.664,4.98-5.664,2.734,0,4.98,2.422,4.98,5.625C4.99-19.687,2.725-17.09.01-17.09ZM-12.178,4.492H12.178c3.379,0,5-1.074,5-3.379,0-5.371-6.7-12.52-17.168-12.52S-17.178-4.258-17.178,1.113C-17.178,3.418-15.557,4.492-12.178,4.492Zm-.605-3.418c-.469,0-.645-.156-.645-.508C-13.428-2.422-8.6-7.988.01-7.988,8.6-7.988,13.428-2.422,13.428.566c0,.352-.176.508-.645.508Z" transform="translate(251 180)"/><path d="M.01-13.672c4.727,0,8.555-4.18,8.555-9.3A8.779,8.779,0,0,0,.01-32.012,8.827,8.827,0,0,0-8.545-22.93C-8.525-17.832-4.717-13.672.01-13.672Zm0-3.418c-2.7,0-4.98-2.559-4.98-5.84-.02-3.2,2.266-5.664,4.98-5.664,2.734,0,4.98,2.422,4.98,5.625C4.99-19.687,2.725-17.09.01-17.09ZM-12.178,4.492H12.178c3.379,0,5-1.074,5-3.379,0-5.371-6.7-12.52-17.168-12.52S-17.178-4.258-17.178,1.113C-17.178,3.418-15.557,4.492-12.178,4.492Zm-.605-3.418c-.469,0-.645-.156-.645-.508C-13.428-2.422-8.6-7.988.01-7.988,8.6-7.988,13.428-2.422,13.428.566c0,.352-.176.508-.645.508Z" transform="translate(295 180)"/><path d="M0-14.258c4.336,0,7.949-3.828,7.949-8.73A8.255,8.255,0,0,0,0-31.5c-4.3,0-7.949,3.789-7.93,8.535C-7.93-18.086-4.336-14.258,0-14.258ZM-12.09,3.984H12.09c3.34,0,4.473-1.074,4.473-2.93,0-5-6.445-11.875-16.562-11.875-10.137,0-16.562,6.875-16.562,11.875C-16.562,2.91-15.43,3.984-12.09,3.984Z" transform="translate(207 180)"/></g></svg>