<svg xmlns="http://www.w3.org/2000/svg" width="166" height="96" viewBox="0 0 166 96"><g transform="translate(-124.5 -501)"><line x2="166" transform="translate(124.5 568.5)" fill="none" stroke="#888" stroke-width="3"/><text transform="translate(137 595)" fill="#888" font-size="10" font-family="SFProDisplay-Medium, SF Pro Display" font-weight="500"><tspan x="-10.2" y="0">3PM</tspan></text><text transform="translate(184 595)" fill="#888" font-size="10" font-family="SFProDisplay-Medium, SF Pro Display" font-weight="500"><tspan x="-10.247" y="0">6PM</tspan></text><text transform="translate(229 595)" fill="#888" font-size="10" font-family="SFProDisplay-Medium, SF Pro Display" font-weight="500"><tspan x="-10.249" y="0">9PM</tspan></text><text transform="translate(277 595)" fill="#888" font-size="10" font-family="SFProDisplay-Medium, SF Pro Display" font-weight="500"><tspan x="-12.654" y="0">12AM</tspan></text><path d="M5,0H15a5,5,0,0,1,5,5V58a0,0,0,0,1,0,0H0a0,0,0,0,1,0,0V5A5,5,0,0,1,5,0Z" transform="translate(127 511)" fill="#888"/><path d="M5,0H15a5,5,0,0,1,5,5V37a0,0,0,0,1,0,0H0a0,0,0,0,1,0,0V5A5,5,0,0,1,5,0Z" transform="translate(174 532)" fill="#888"/><path d="M5,0H15a5,5,0,0,1,5,5V45a0,0,0,0,1,0,0H0a0,0,0,0,1,0,0V5A5,5,0,0,1,5,0Z" transform="translate(219 524)" fill="#888"/><path d="M5,0H15a5,5,0,0,1,5,5V68a0,0,0,0,1,0,0H0a0,0,0,0,1,0,0V5A5,5,0,0,1,5,0Z" transform="translate(267 501)" fill="#888"/></g></svg>